<?xml version="1.0" encoding="UTF-8"?>
<svg width="111px" height="111px" viewBox="0 0 111 111" version="1.1" xmlns="http://www.w3.org/2000/svg" xmlns:xlink="http://www.w3.org/1999/xlink">
    <!-- Generator: Sketch 61 (89581) - https://sketch.com -->
    <title>Favicon</title>
    <desc>Created with Sketch.</desc>
    <g id="Page-1" stroke="none" stroke-width="1" fill="none" fill-rule="evenodd">
        <g id="Artboard" transform="translate(-262.000000, -1358.000000)">
            <g id="Favicon" transform="translate(262.000000, 1358.000000)">
                <circle id="Oval" fill="#002E5A" cx="55.5" cy="55.5" r="55.5"></circle>
                <g id="Group" transform="translate(56.500000, 65.500000) rotate(-360.000000) translate(-56.500000, -65.500000) translate(29.000000, 27.000000)" fill="#FFFFFF" fill-rule="nonzero">
                    <path d="M8.51,42.54 C10.67,42.54 12.55,38.82 14.15,31.38 C15.63,24.66 16.43,21.06 16.55,20.58 C16.75,21.34 17.05,23.86 17.45,28.14 C17.81,32.18 18.35,35.16 19.07,37.08 C20.11,40 21.73,41.46 23.93,41.46 C26.97,41.46 29.39,37.6 31.19,29.88 C32.47,24.28 33.11,19.1 33.11,14.34 C33.11,11.74 32.91,9.04 32.51,6.24 C31.91,2.2 31.05,0.18 29.93,0.18 C28.85,0.18 28.31,1.24 28.31,3.36 C28.31,3.96 28.51,4.8 28.91,5.88 C29.23,6.76 29.55,7.62 29.87,8.46 C30.27,9.74 30.47,11.48 30.47,13.68 C30.47,17.6 29.99,22.14 29.03,27.3 C27.71,34.38 25.97,37.92 23.81,37.92 C22.25,37.92 21.07,35 20.27,29.16 C19.75,25.12 19.49,21.18 19.49,17.34 C19.49,14.82 19.85,12.98 20.57,11.82 C20.53,11.02 20.12,10.31 19.34,9.69 C18.56,9.07 17.75,8.76 16.91,8.76 C16.63,8.76 16.23,8.96 15.71,9.36 C15.19,9.76 14.93,10.1 14.93,10.38 C14.93,14.94 14.21,20.7 12.77,27.66 C12.41,29.5 11.87,31.46 11.15,33.54 C10.15,36.58 9.27,38.1 8.51,38.1 C7.03,38.1 5.91,34.42 5.15,27.06 C4.63,22.06 4.37,17.06 4.37,12.06 C4.37,12.06 4.35,11.3 4.31,9.78 C4.27,8.62 4.27,7.68 4.31,6.96 C4.39,6 4.54,5.35 4.76,5.01 C4.98,4.67 5.39,4.44 5.99,4.32 L5.99,4.32 L5.99,2.7 C5.03,2.18 4.21,1.92 3.53,1.92 C1.69,1.92 0.77,3.14 0.77,5.58 C0.77,11.98 1.03,18.3 1.55,24.54 C2.35,33.7 3.55,39.14 5.15,40.86 C6.19,41.98 7.31,42.54 8.51,42.54 Z" id="W"></path>
                    <path d="M39.92,63.2 C42.68,63.2 45.24,62.52 47.6,61.16 C50.16,59.68 51.86,57.72 52.7,55.28 C53.06,54.24 53.24,53.4 53.24,52.76 C53.24,51.88 52.84,51.44 52.04,51.44 C51.56,51.44 51.16,51.7 50.84,52.22 C50.32,53.3 49.98,54.14 49.82,54.74 C48.9,56.58 47.58,58.05 45.86,59.15 C44.14,60.25 42.24,60.8 40.16,60.8 C36.36,60.8 33.56,59.28 31.76,56.24 C30.32,53.8 29.6,50.52 29.6,46.4 C29.6,40.2 30.62,34.98 32.66,30.74 C33.58,28.9 34.68,27.28 35.96,25.88 C37.68,24 39.32,23.06 40.88,23.06 C42.84,23.06 44.38,24.46 45.5,27.26 C46.38,29.42 46.82,31.68 46.82,34.04 C46.82,37.92 46.3,40.36 45.26,41.36 C44.74,41.76 44.36,42.04 44.12,42.2 C44.48,43.08 45.08,43.52 45.92,43.52 C47,43.52 47.88,42.08 48.56,39.2 C49.08,37 49.34,35.06 49.34,33.38 C49.34,29.98 48.74,27.12 47.54,24.8 C46.02,21.84 43.72,20.36 40.64,20.36 C38.56,20.36 36.5,21.26 34.46,23.06 C31.7,25.46 29.62,28.86 28.22,33.26 C26.98,37.02 26.36,41.02 26.36,45.26 C26.36,50.22 27.36,54.28 29.36,57.44 C31.72,61.28 35.24,63.2 39.92,63.2 Z" id="C"></path>
                </g>
            </g>
        </g>
    </g>
</svg>